<svg xmlns="http://www.w3.org/2000/svg" viewBox="0 0 512 512" width="512" height="512">
  <!-- Background rounded rect -->
  <rect width="512" height="512" rx="112" ry="112" fill="#1e1b4b"/>

  <!-- Subtle radial glow -->
  <radialGradient id="glow" cx="50%" cy="45%" r="55%">
    <stop offset="0%" stop-color="#6366f1" stop-opacity="0.4"/>
    <stop offset="100%" stop-color="#1e1b4b" stop-opacity="0"/>
  </radialGradient>
  <rect width="512" height="512" rx="112" ry="112" fill="url(#glow)"/>

  <!-- Film strip left -->
  <rect x="68" y="148" width="28" height="216" rx="8" fill="#4338ca" opacity="0.7"/>
  <rect x="68" y="164" width="28" height="32" rx="4" fill="#312e81"/>
  <rect x="68" y="212" width="28" height="32" rx="4" fill="#312e81"/>
  <rect x="68" y="260" width="28" height="32" rx="4" fill="#312e81"/>
  <rect x="68" y="308" width="28" height="32" rx="4" fill="#312e81"/>

  <!-- Film strip right -->
  <rect x="416" y="148" width="28" height="216" rx="8" fill="#4338ca" opacity="0.7"/>
  <rect x="416" y="164" width="28" height="32" rx="4" fill="#312e81"/>
  <rect x="416" y="212" width="28" height="32" rx="4" fill="#312e81"/>
  <rect x="416" y="260" width="28" height="32" rx="4" fill="#312e81"/>
  <rect x="416" y="308" width="28" height="32" rx="4" fill="#312e81"/>

  <!-- Screen background -->
  <rect x="108" y="148" width="296" height="216" rx="16" fill="#312e81"/>

  <!-- Play triangle -->
  <polygon points="210,196 210,316 338,256" fill="url(#playgrad)"/>
  <defs>
    <linearGradient id="playgrad" x1="0%" y1="0%" x2="100%" y2="100%">
      <stop offset="0%" stop-color="#a5b4fc"/>
      <stop offset="100%" stop-color="#6366f1"/>
    </linearGradient>
  </defs>

  <!-- Shuffle arrows below -->
  <!-- Arrow 1: left to right curved -->
  <path d="M152 388 Q192 368 232 388" stroke="#818cf8" stroke-width="10" fill="none" stroke-linecap="round"/>
  <polygon points="228,378 244,390 228,402" fill="#818cf8"/>

  <!-- Arrow 2: right to left curved (crossed) -->
  <path d="M360 388 Q320 368 280 388" stroke="#818cf8" stroke-width="10" fill="none" stroke-linecap="round"/>
  <polygon points="284,378 268,390 284,402" fill="#818cf8"/>
</svg>
