<svg xmlns="http://www.w3.org/2000/svg" viewBox="0 0 512 512" width="512" height="512">
  <!-- Rounded background -->
  <rect width="512" height="512" rx="112" ry="112" fill="#1e1b4b"/>

  <!-- Radial glow -->
  <radialGradient id="glow" cx="50%" cy="45%" r="55%">
    <stop offset="0%" stop-color="#6366f1" stop-opacity="0.45"/>
    <stop offset="100%" stop-color="#1e1b4b" stop-opacity="0"/>
  </radialGradient>
  <rect width="512" height="512" rx="112" ry="112" fill="url(#glow)"/>

  <!-- Film strip left -->
  <rect x="52" y="128" width="36" height="256" rx="8" fill="#4338ca" opacity="0.8"/>
  <rect x="52" y="148" width="36" height="40" rx="4" fill="#312e81"/>
  <rect x="52" y="204" width="36" height="40" rx="4" fill="#312e81"/>
  <rect x="52" y="260" width="36" height="40" rx="4" fill="#312e81"/>
  <rect x="52" y="316" width="36" height="40" rx="4" fill="#312e81"/>

  <!-- Film strip right -->
  <rect x="424" y="128" width="36" height="256" rx="8" fill="#4338ca" opacity="0.8"/>
  <rect x="424" y="148" width="36" height="40" rx="4" fill="#312e81"/>
  <rect x="424" y="204" width="36" height="40" rx="4" fill="#312e81"/>
  <rect x="424" y="260" width="36" height="40" rx="4" fill="#312e81"/>
  <rect x="424" y="316" width="36" height="40" rx="4" fill="#312e81"/>

  <!-- Screen -->
  <rect x="100" y="128" width="312" height="228" rx="18" fill="#312e81"/>

  <!-- Play triangle -->
  <defs>
    <linearGradient id="pg" x1="0%" y1="0%" x2="100%" y2="100%">
      <stop offset="0%" stop-color="#c7d2fe"/>
      <stop offset="100%" stop-color="#6366f1"/>
    </linearGradient>
  </defs>
  <polygon points="204,180 204,312 348,246" fill="url(#pg)"/>

  <!-- Shuffle arrows -->
  <path d="M136 400 Q180 374 224 400" stroke="#818cf8" stroke-width="12" fill="none" stroke-linecap="round"/>
  <polygon points="218,386 240,402 218,418" fill="#818cf8"/>

  <path d="M376 400 Q332 374 288 400" stroke="#818cf8" stroke-width="12" fill="none" stroke-linecap="round"/>
  <polygon points="294,386 272,402 294,418" fill="#818cf8"/>
</svg>
